:SAMPLES-PER-SECOND 30
:FULLY-SPECIFIED
:DEGREES
235
root  2.5195 29.4483 -1.31902 -158.514 -78.6601 173.131
RightUpLeg  -68.8624 -25.384 -12.7055
RightLeg  66.2869 1.80445 3.86266
RightFoot  -5.05028 -1.22467 21.4163
RightToes  -6.40286e-010 0 -3.6325e-017
Spine  35.2591 -8.8311 -9.65351
Spine1  -20.0642 -11.1252 23.3554
HEad  -38.4122 34.0855 -19.767
LeftShoulder1  0.0625242 1.66035 5.75739
LeftArm  -27.7021 3.89188 -23.3323
LeftForeArm  3.39772 -2.11575 -5.95489
LeftHand  -0.538835 3.30713 29.7008
RightShoulder  -0.402052 -10.3654 -2.98342
RightArm  -27.149 -18.5603 -5.01185
RightForeArm  -12.3156 21.6217 5.33498
RightHand  -0.600729 -0.783375 -15.0955
LeftUpLeg  -21.645 22.7189 44.7522
LeftLeg  29.0916 3.16179 2.24142
LeftFoot  15.5212 9.66139 -39.413
LeftToes  -2.09187e-010 -4.93792e-011 -8.21189e-011
236
root  2.61131 29.1793 -0.66365 -149.978 -79.6886 164.818
RightUpLeg  -69.0183 -26.7774 -15.5028
RightLeg  65.9248 1.55331 3.17537
RightFoot  -3.07782 -1.58586 21.4378
RightToes  -6.40286e-010 0 -3.6325e-017
Spine  35.4032 -9.64307 -5.75114
Spine1  -19.6512 -10.9642 15.9971
HEad  -38.0489 32.9326 -17.7199
LeftShoulder1  0.0997106 1.54478 3.84893
LeftArm  -27.7335 5.88776 -27.9458
LeftForeArm  4.71556 -3.9269 -6.29698
LeftHand  -0.568636 3.323 31.558
RightShoulder  -0.298807 -10.1783 -4.54438
RightArm  -28.6193 -15.3515 -9.68691
RightForeArm  -14.1094 19.3851 5.05132
RightHand  -0.646638 -0.537647 -15.4555
LeftUpLeg  -25.8593 24.8043 42.3393
LeftLeg  33.6696 0.2661 0.541032
LeftFoot  12.8912 9.16656 -41.373
LeftToes  -2.09187e-010 -4.93792e-011 -8.21189e-011
237
root  2.73994 29.0492 0.160411 -139.74 -80.2924 154.895
RightUpLeg  -68.5281 -28.0604 -18.6163
RightLeg  64.3751 1.36359 2.51371
RightFoot  -0.67984 -2.0357 21.5229
RightToes  -6.40286e-010 0 -3.6325e-017
Spine  35.3803 -10.5136 -1.38941
Spine1  -19.1563 -10.654 7.41127
HEad  -37.3215 31.3437 -15.5244
LeftShoulder1  0.148126 1.24937 2.14932
LeftArm  -26.8731 8.41889 -31.9179
LeftForeArm  6.74741 -5.32844 -6.86139
LeftHand  -0.624829 3.21741 32.9835
RightShoulder  -0.193866 -10.011 -6.22882
RightArm  -31.3716 -12.0816 -13.316
RightForeArm  -16.2021 16.7192 4.36757
RightHand  -0.664997 -0.243394 -15.0014
LeftUpLeg  -29.9443 26.0421 39.6032
LeftLeg  37.7714 -2.3753 -1.61255
LeftFoot  10.69 8.91417 -44.0378
LeftToes  -2.09187e-010 -4.93792e-011 -8.21189e-011
238
root  2.89353 29.1001 1.12244 -128.787 -80.3834 144.485
RightUpLeg  -67.3214 -29.0511 -22.0216
RightLeg  61.4413 1.05442 1.58686
RightFoot  2.09984 -2.66322 22.4398
RightToes  -6.40286e-010 0 -3.6325e-017
Spine  35.286 -11.131 3.06571
Spine1  -18.6514 -9.98774 -1.58433
HEad  -36.271 29.2544 -13.4276
LeftShoulder1  0.197755 0.992549 0.649348
LeftArm  -25.4388 11.2615 -35.4577
LeftForeArm  8.72044 -6.10701 -7.5325
LeftHand  -0.649692 3.15258 33.269
RightShoulder  -0.077089 -10.2148 -8.29186
RightArm  -34.9506 -8.85274 -15.562
RightForeArm  -19.7119 14.6296 3.25574
RightHand  -0.628381 -0.242792 -14.1865
LeftUpLeg  -33.7008 26.9407 36.475
LeftLeg  41.0003 -5.26579 -4.51287
LeftFoot  8.85928 8.57863 -46.0287
LeftToes  -2.09187e-010 -4.93792e-011 -8.21189e-011
239
root  3.05168 29.3531 2.19955 -117.67 -80.0777 134.448
RightUpLeg  -65.5108 -30.0194 -25.443
RightLeg  56.7633 0.486251 0.366039
RightFoot  5.68495 -3.58207 23.8705
RightToes  -6.40286e-010 0 -3.6325e-017
Spine  34.9962 -11.2206 7.28396
Spine1  -18.2371 -8.82912 -10.1061
HEad  -34.664 26.5789 -11.3641
LeftShoulder1  0.240346 0.993522 -1.28309
LeftArm  -24.1302 14.1475 -38.2108
LeftForeArm  9.96101 -6.39766 -8.09466
LeftHand  -0.663582 3.07666 32.8647
RightShoulder  0.0692813 -10.6928 -10.6969
RightArm  -37.7813 -5.78259 -16.9076
RightForeArm  -23.1128 13.2491 2.25008
RightHand  -0.629468 -0.125213 -13.9044
LeftUpLeg  -37.685 28.614 32.2488
LeftLeg  43.5019 -8.22114 -7.89041
LeftFoot  7.40309 7.93129 -45.8971
LeftToes  -2.09187e-010 -4.93792e-011 -8.21189e-011
240
root  3.21897 29.7541 3.33827 -106.048 -79.5873 124.441
RightUpLeg  -62.9304 -31.0561 -28.8272
RightLeg  50.5036 -0.589633 -1.11853
RightFoot  9.84802 -4.74197 25.3335
RightToes  -6.40286e-010 0 -3.6325e-017
Spine  34.4928 -10.6874 10.9403
Spine1  -17.957 -7.19624 -17.6766
HEad  -32.3553 23.373 -9.18042
LeftShoulder1  0.282051 1.09747 -3.69905
LeftArm  -23.4234 17.272 -39.9593
LeftForeArm  10.1799 -6.24361 -8.37911
LeftHand  -0.701194 2.92719 32.6101
RightShoulder  0.222179 -11.011 -12.9677
RightArm  -38.953 -2.89092 -18.0039
RightForeArm  -24.5973 11.912 1.77358
RightHand  -0.651161 0.142465 -13.7074
LeftUpLeg  -42.5636 31.4191 26.3974
LeftLeg  45.5763 -10.8399 -11.2362
LeftFoot  6.66397 7.21526 -43.7267
LeftToes  -2.09187e-010 -4.93792e-011 -8.21189e-011
241
root  3.42531 30.215 4.49432 -93.5629 -78.9938 113.597
RightUpLeg  -59.0384 -31.7872 -32.5847
RightLeg  43.2287 -2.89042 -3.17755
RightFoot  14.3828 -6.15069 26.9086
RightToes  -6.40286e-010 0 -3.6325e-017
Spine  34.117 -9.58214 13.7691
Spine1  -17.6025 -5.14683 -23.9397
HEad  -29.6388 19.8426 -6.97284
LeftShoulder1  0.294908 1.30279 -5.60381
LeftArm  -23.468 20.7075 -41.3739
LeftForeArm  9.405 -5.46616 -8.3537
LeftHand  -0.753715 2.6958 32.0417
RightShoulder  0.337558 -11.0071 -14.7033
RightArm  -39.2447 -0.34073 -18.9048
RightForeArm  -25.1612 10.4465 1.64545
RightHand  -0.612631 0.0971177 -13.0002
LeftUpLeg  -48.2223 34.3273 19.2406
LeftLeg  47.3775 -13.0475 -14.3519
LeftFoot  6.75682 6.69897 -40.6813
LeftToes  -2.09187e-010 -4.93792e-011 -8.21189e-011
242
root  3.6919 30.7259 5.70448 -81.1967 -78.3004 102.378
RightUpLeg  -53.3893 -31.8609 -36.8484
RightLeg  34.7363 -7.09993 -5.45883
RightFoot  20.4108 -7.798 27.4847
RightToes  -6.40286e-010 0 -3.6325e-017
Spine  34.3351 -7.95757 16.0406
Spine1  -16.9473 -2.56777 -28.4697
HEad  -26.4908 16.0102 -4.7678
LeftShoulder1  0.221298 1.9372 -6.40399
LeftArm  -24.0684 23.8464 -42.7645
LeftForeArm  7.94105 -3.89459 -8.05771
LeftHand  -0.807482 2.34158 30.3771
RightShoulder  0.405042 -10.8506 -15.8459
RightArm  -39.5812 1.49078 -19.5087
RightForeArm  -26.3638 9.30478 1.52397
RightHand  -0.56021 -0.0717233 -12.2681
LeftUpLeg  -53.6235 36.144 11.7964
LeftLeg  48.8054 -14.9272 -17.1379
LeftFoot  7.16399 6.26429 -37.4525
LeftToes  -2.09187e-010 -4.93792e-011 -8.21189e-011
243
root  3.98653 31.2973 7.00174 -70.2809 -77.7277 92.1108
RightUpLeg  -46.0876 -31.344 -40.8817
RightLeg  23.9658 -12.5064 -6.20011
RightFoot  28.8165 -9.0555 25.0917
RightToes  -6.40286e-010 0 -3.6325e-017
Spine  35.2675 -5.75319 18.4005
Spine1  -16.3895 0.706652 -31.0874
HEad  -22.008 11.3594 -2.21733
LeftShoulder1  0.0671242 3.02986 -6.44646
LeftArm  -24.9233 26.1831 -43.2781
LeftForeArm  5.87681 -1.74962 -7.49571
LeftHand  -0.851205 1.96503 28.538
RightShoulder  0.419257 -10.5508 -16.3372
RightArm  -39.5444 2.39867 -20.1915
RightForeArm  -27.6697 8.65407 1.43736
RightHand  -0.5656 0.132401 -11.9454
LeftUpLeg  -57.9109 36.9324 5.00788
LeftLeg  49.7561 -16.4927 -19.4211
LeftFoot  7.14297 5.65482 -34.0671
LeftToes  -2.09187e-010 -4.93792e-011 -8.21189e-011
